<svg xmlns="http://www.w3.org/2000/svg" id="export" class="canvas" preserveAspectRatio="xMidYMid meet" style="width: 336px; height: 524px;" width="150" height="338"><rect id="background" fill="#fff" pointer-events="all" width="150" height="338"/><g id="origin" transform="translate(6.7769775390625, 6.7769775390625) scale(1)"><g id="clusters" class="clusters"/><g id="edge-paths" class="edge-paths"><defs><marker id="arrowhead-vee" viewBox="0 0 10 10" refX="9" refY="5" markerUnits="strokeWidth" markerWidth="8" markerHeight="6" orient="auto" style="fill: rgb(0, 0, 0);"><path d="M 0 0 L 10 5 L 0 10 L 4 5 z" style="stroke-width: 1;"/></marker><marker id="arrowhead-vee-select" viewBox="0 0 10 10" refX="9" refY="5" markerUnits="strokeWidth" markerWidth="8" markerHeight="6" orient="auto" style="fill: rgb(238, 0, 0);"><path d="M 0 0 L 10 5 L 0 10 L 4 5 z" style="stroke-width: 1;"/></marker></defs><path id="edge-input" class="edge-path" d="M67.769775390625,23L67.769775390625,24.666666666666668C67.769775390625,26.333333333333332,67.769775390625,29.666666666666668,67.769775390625,33C67.769775390625,36.333333333333336,67.769775390625,39.666666666666664,67.769775390625,43C67.769775390625,46.333333333333336,67.769775390625,49.666666666666664,67.769775390625,53C67.769775390625,56.333333333333336,67.769775390625,59.666666666666664,67.769775390625,61.333333333333336L67.769775390625,63" style="stroke: rgb(0, 0, 0); stroke-width: 1px; fill: none; marker-end: url(&quot;#arrowhead-vee&quot;);"/><path id="edge-inception_resnet_v2" class="edge-path" d="M67.769775390625,86L67.769775390625,87.66666666666667C67.769775390625,89.33333333333333,67.769775390625,92.66666666666667,67.769775390625,96C67.769775390625,99.33333333333333,67.769775390625,102.66666666666667,67.769775390625,104.33333333333333L67.769775390625,106" style="stroke: rgb(0, 0, 0); stroke-width: 1px; fill: none; marker-end: url(&quot;#arrowhead-vee&quot;);"/><path id="edge-global_average_pooling2d_1" class="edge-path" d="M67.769775390625,129L67.769775390625,130.66666666666666C67.769775390625,132.33333333333334,67.769775390625,135.66666666666666,67.769775390625,139C67.769775390625,142.33333333333334,67.769775390625,145.66666666666666,67.769775390625,147.33333333333334L67.769775390625,149" style="stroke: rgb(0, 0, 0); stroke-width: 1px; fill: none; marker-end: url(&quot;#arrowhead-vee&quot;);"/><path id="edge-dense_1" class="edge-path" d="M67.769775390625,195L67.769775390625,196.66666666666666C67.769775390625,198.33333333333334,67.769775390625,201.66666666666666,67.769775390625,205C67.769775390625,208.33333333333334,67.769775390625,211.66666666666666,67.769775390625,213.33333333333334L67.769775390625,215" style="stroke: rgb(0, 0, 0); stroke-width: 1px; fill: none; marker-end: url(&quot;#arrowhead-vee&quot;);"/><path id="edge-dropout_1" class="edge-path" d="M67.769775390625,238L67.769775390625,239.66666666666666C67.769775390625,241.33333333333334,67.769775390625,244.66666666666666,67.769775390625,248C67.769775390625,251.33333333333334,67.769775390625,254.66666666666666,67.769775390625,256.3333333333333L67.769775390625,258" style="stroke: rgb(0, 0, 0); stroke-width: 1px; fill: none; marker-end: url(&quot;#arrowhead-vee&quot;);"/><path id="edge-dense_2" class="edge-path" d="M67.769775390625,281L67.769775390625,282.6666666666667C67.769775390625,284.3333333333333,67.769775390625,287.6666666666667,67.769775390625,291C67.769775390625,294.3333333333333,67.769775390625,297.6666666666667,67.769775390625,299.3333333333333L67.769775390625,301" style="stroke: rgb(0, 0, 0); stroke-width: 1px; fill: none; marker-end: url(&quot;#arrowhead-vee&quot;);"/></g><g id="edge-labels" class="edge-labels"/><g id="nodes" class="nodes"><g id="input-name-input" class="node graph-input" style="opacity: 1;" transform="translate(47.979248046875,0)"><g class="node-item graph-item-input" transform="translate(0,0)"><path d="M5,0h29.5810546875a5,5 0 0 1 5,5v13a5,5 0 0 1 -5,5h-29.5810546875a5,5 0 0 1 -5,-5v-13a5,5 0 0 1 5,-5z" style="stroke: rgb(0, 0, 0); fill: rgb(238, 238, 238); stroke-width: 0;"/><text x="6" y="16" style="font-family: -apple-system, BlinkMacSystemFont, &quot;Segoe WPC&quot;, &quot;Segoe UI&quot;, Ubuntu, &quot;Droid Sans&quot;, sans-serif, &quot;PingFang SC&quot;; font-size: 11px; text-rendering: geometricprecision;">input</text><title>?[]</title></g><path class="node border" d="M5,0h29.5810546875a5,5 0 0 1 5,5v13a5,5 0 0 1 -5,5h-29.5810546875a5,5 0 0 1 -5,-5v-13a5,5 0 0 1 5,-5z" style="stroke: rgb(51, 51, 51); fill: none; stroke-width: 1px;"/></g><g id="node-name-inception_resnet_v2" class="node graph-node" style="opacity: 1;" transform="translate(2.969482421875,63)"><g class="node-item node-item-type" transform="translate(0,0)"><path d="M5,0h104.6005859375a0,0 0 0 1 0,0v23a0,0 0 0 1 0,0h-104.6005859375a5,5 0 0 1 -5,-5v-13a5,5 0 0 1 5,-5z" style="stroke: rgb(0, 0, 0); fill: rgb(0, 0, 0); stroke-width: 0;"/><text x="6" y="16" style="font-family: -apple-system, BlinkMacSystemFont, &quot;Segoe WPC&quot;, &quot;Segoe UI&quot;, Ubuntu, &quot;Droid Sans&quot;, sans-serif, &quot;PingFang SC&quot;; font-size: 11px; text-rendering: geometricprecision; fill: rgb(255, 255, 255);">inception_resnet_v2</text><title>inception_resnet_v2</title></g><g class="node-item node-item-type" transform="translate(109.6005859375,0)"><path d="M0,0h15a5,5 0 0 1 5,5v13a5,5 0 0 1 -5,5h-15a0,0 0 0 1 0,0v-23a0,0 0 0 1 0,0z" style="stroke: rgb(0, 0, 0); fill: rgb(0, 0, 0); stroke-width: 0;"/><text x="6" y="16" style="font-family: -apple-system, BlinkMacSystemFont, &quot;Segoe WPC&quot;, &quot;Segoe UI&quot;, Ubuntu, &quot;Droid Sans&quot;, sans-serif, &quot;PingFang SC&quot;; font-size: 11px; text-rendering: geometricprecision; fill: rgb(255, 255, 255);">ƒ</text><title>Show Function Definition</title></g><path class="node border" d="M5,0h119.6005859375a5,5 0 0 1 5,5v13a5,5 0 0 1 -5,5h-119.6005859375a5,5 0 0 1 -5,-5v-13a5,5 0 0 1 5,-5z" style="stroke: rgb(51, 51, 51); fill: none; stroke-width: 1px;"/><line class="node" x1="109.6005859375" x2="109.6005859375" y1="0" y2="23" style="stroke: rgb(51, 51, 51); fill: none; stroke-width: 1px;"/></g><g id="node-name-global_average_pooling2d_1" class="node graph-node" style="opacity: 1;" transform="translate(0,106)"><g class="node-item node-item-type node-item-type-pool" transform="translate(0,0)"><path d="M5,0h125.53955078125a5,5 0 0 1 5,5v13a5,5 0 0 1 -5,5h-125.53955078125a5,5 0 0 1 -5,-5v-13a5,5 0 0 1 5,-5z" style="stroke: rgb(0, 0, 0); fill: rgb(51, 85, 51); stroke-width: 0;"/><text x="6" y="16" style="font-family: -apple-system, BlinkMacSystemFont, &quot;Segoe WPC&quot;, &quot;Segoe UI&quot;, Ubuntu, &quot;Droid Sans&quot;, sans-serif, &quot;PingFang SC&quot;; font-size: 11px; text-rendering: geometricprecision; fill: rgb(255, 255, 255);">GlobalAveragePooling2D</text><title>global_average_pooling2d_1</title></g><path class="node border" d="M5,0h125.53955078125a5,5 0 0 1 5,5v13a5,5 0 0 1 -5,5h-125.53955078125a5,5 0 0 1 -5,-5v-13a5,5 0 0 1 5,-5z" style="stroke: rgb(51, 51, 51); fill: none; stroke-width: 1px;"/></g><g id="node-name-dense_1" class="node graph-node" style="opacity: 1;" transform="translate(45.5908203125,149)"><g class="node-item node-item-type node-item-type-layer" transform="translate(0,0)"><path d="M5,0h34.35791015625a5,5 0 0 1 5,5v18a0,0 0 0 1 0,0h-44.35791015625a0,0 0 0 1 0,0v-18a5,5 0 0 1 5,-5z" style="stroke: rgb(0, 0, 0); fill: rgb(51, 85, 136); stroke-width: 0;"/><text x="6" y="16" style="font-family: -apple-system, BlinkMacSystemFont, &quot;Segoe WPC&quot;, &quot;Segoe UI&quot;, Ubuntu, &quot;Droid Sans&quot;, sans-serif, &quot;PingFang SC&quot;; font-size: 11px; text-rendering: geometricprecision; fill: rgb(255, 255, 255);">Dense</text><title>dense_1</title></g><g class="node-item node-item-type node-item-type-activation" transform="translate(0,23)"><path d="M0,0h44.35791015625a0,0 0 0 1 0,0v18a5,5 0 0 1 -5,5h-34.35791015625a5,5 0 0 1 -5,-5v-18a0,0 0 0 1 0,0z" style="stroke: rgb(0, 0, 0); fill: rgb(112, 41, 33); stroke-width: 0;"/><text x="6" y="16" style="font-family: -apple-system, BlinkMacSystemFont, &quot;Segoe WPC&quot;, &quot;Segoe UI&quot;, Ubuntu, &quot;Droid Sans&quot;, sans-serif, &quot;PingFang SC&quot;; font-size: 11px; text-rendering: geometricprecision; fill: rgb(255, 255, 255);">ReLU</text></g><line class="node" x1="0" x2="44.35791015625" y1="23" y2="23" style="stroke: rgb(51, 51, 51); fill: none; stroke-width: 1px;"/><path class="node border" d="M5,0h34.35791015625a5,5 0 0 1 5,5v36a5,5 0 0 1 -5,5h-34.35791015625a5,5 0 0 1 -5,-5v-36a5,5 0 0 1 5,-5z" style="stroke: rgb(51, 51, 51); fill: none; stroke-width: 1px;"/></g><g id="node-name-dropout_1" class="node graph-node" style="opacity: 1;" transform="translate(40.2099609375,215)"><g class="node-item node-item-type node-item-type-dropout" transform="translate(0,0)"><path d="M5,0h45.11962890625a5,5 0 0 1 5,5v13a5,5 0 0 1 -5,5h-45.11962890625a5,5 0 0 1 -5,-5v-13a5,5 0 0 1 5,-5z" style="stroke: rgb(0, 0, 0); fill: rgb(69, 71, 112); stroke-width: 0;"/><text x="6" y="16" style="font-family: -apple-system, BlinkMacSystemFont, &quot;Segoe WPC&quot;, &quot;Segoe UI&quot;, Ubuntu, &quot;Droid Sans&quot;, sans-serif, &quot;PingFang SC&quot;; font-size: 11px; text-rendering: geometricprecision; fill: rgb(255, 255, 255);">Dropout</text><title>dropout_1</title></g><path class="node border" d="M5,0h45.11962890625a5,5 0 0 1 5,5v13a5,5 0 0 1 -5,5h-45.11962890625a5,5 0 0 1 -5,-5v-13a5,5 0 0 1 5,-5z" style="stroke: rgb(51, 51, 51); fill: none; stroke-width: 1px;"/></g><g id="node-name-dense_2" class="node graph-node" style="opacity: 1;" transform="translate(45.5908203125,258)"><g class="node-item node-item-type node-item-type-layer" transform="translate(0,0)"><path d="M5,0h34.35791015625a5,5 0 0 1 5,5v13a5,5 0 0 1 -5,5h-34.35791015625a5,5 0 0 1 -5,-5v-13a5,5 0 0 1 5,-5z" style="stroke: rgb(0, 0, 0); fill: rgb(51, 85, 136); stroke-width: 0;"/><text x="6" y="16" style="font-family: -apple-system, BlinkMacSystemFont, &quot;Segoe WPC&quot;, &quot;Segoe UI&quot;, Ubuntu, &quot;Droid Sans&quot;, sans-serif, &quot;PingFang SC&quot;; font-size: 11px; text-rendering: geometricprecision; fill: rgb(255, 255, 255);">Dense</text><title>dense_2</title></g><path class="node border" d="M5,0h34.35791015625a5,5 0 0 1 5,5v13a5,5 0 0 1 -5,5h-34.35791015625a5,5 0 0 1 -5,-5v-13a5,5 0 0 1 5,-5z" style="stroke: rgb(51, 51, 51); fill: none; stroke-width: 1px;"/></g><g class="node" style="opacity: 1;" transform="translate(41.049560546875,301)"><g class="node-item graph-item-output" transform="translate(0,0)"><path d="M5,0h43.4404296875a5,5 0 0 1 5,5v13a5,5 0 0 1 -5,5h-43.4404296875a5,5 0 0 1 -5,-5v-13a5,5 0 0 1 5,-5z" style="stroke: rgb(0, 0, 0); fill: rgb(238, 238, 238); stroke-width: 0;"/><text x="6" y="16" style="font-family: -apple-system, BlinkMacSystemFont, &quot;Segoe WPC&quot;, &quot;Segoe UI&quot;, Ubuntu, &quot;Droid Sans&quot;, sans-serif, &quot;PingFang SC&quot;; font-size: 11px; text-rendering: geometricprecision;">dense_2</text></g><path class="node border" d="M5,0h43.4404296875a5,5 0 0 1 5,5v13a5,5 0 0 1 -5,5h-43.4404296875a5,5 0 0 1 -5,-5v-13a5,5 0 0 1 5,-5z" style="stroke: rgb(51, 51, 51); fill: none; stroke-width: 1px;"/></g></g></g></svg>